<svg width="16" height="16" viewBox="0 0 16 16" fill="none" xmlns="http://www.w3.org/2000/svg">
<path d="M7.90909 12.1364C8.02596 12.1364 8.14021 12.1017 8.23738 12.0368C8.33456 11.9718 8.4103 11.8796 8.45502 11.7716C8.49974 11.6636 8.51145 11.5448 8.48865 11.4302C8.46585 11.3155 8.40957 11.2103 8.32693 11.1276C8.24429 11.045 8.139 10.9887 8.02437 10.9659C7.90975 10.9431 7.79093 10.9548 7.68296 10.9995C7.57499 11.0442 7.4827 11.12 7.41777 11.2172C7.35284 11.3143 7.31818 11.4286 7.31818 11.5455C7.31818 11.7022 7.38044 11.8525 7.49126 11.9633C7.60207 12.0741 7.75237 12.1364 7.90909 12.1364ZM10.8636 12.1364C10.9805 12.1364 11.0948 12.1017 11.1919 12.0368C11.2891 11.9718 11.3648 11.8796 11.4096 11.7716C11.4543 11.6636 11.466 11.5448 11.4432 11.4302C11.4204 11.3155 11.3641 11.2103 11.2815 11.1276C11.1988 11.045 11.0935 10.9887 10.9789 10.9659C10.8643 10.9431 10.7455 10.9548 10.6375 10.9995C10.5295 11.0442 10.4372 11.12 10.3723 11.2172C10.3074 11.3143 10.2727 11.4286 10.2727 11.5455C10.2727 11.7022 10.335 11.8525 10.4458 11.9633C10.5566 12.0741 10.7069 12.1364 10.8636 12.1364ZM10.8636 9.77273C10.9805 9.77273 11.0948 9.73807 11.1919 9.67314C11.2891 9.60821 11.3648 9.51592 11.4096 9.40795C11.4543 9.29997 11.466 9.18116 11.4432 9.06654C11.4204 8.95191 11.3641 8.84662 11.2815 8.76398C11.1988 8.68134 11.0935 8.62506 10.9789 8.60226C10.8643 8.57946 10.7455 8.59116 10.6375 8.63589C10.5295 8.68061 10.4372 8.75635 10.3723 8.85353C10.3074 8.9507 10.2727 9.06495 10.2727 9.18182C10.2727 9.33854 10.335 9.48884 10.4458 9.59965C10.5566 9.71047 10.7069 9.77273 10.8636 9.77273ZM7.90909 9.77273C8.02596 9.77273 8.14021 9.73807 8.23738 9.67314C8.33456 9.60821 8.4103 9.51592 8.45502 9.40795C8.49974 9.29997 8.51145 9.18116 8.48865 9.06654C8.46585 8.95191 8.40957 8.84662 8.32693 8.76398C8.24429 8.68134 8.139 8.62506 8.02437 8.60226C7.90975 8.57946 7.79093 8.59116 7.68296 8.63589C7.57499 8.68061 7.4827 8.75635 7.41777 8.85353C7.35284 8.9507 7.31818 9.06495 7.31818 9.18182C7.31818 9.33854 7.38044 9.48884 7.49126 9.59965C7.60207 9.71047 7.75237 9.77273 7.90909 9.77273ZM12.0455 2.68182H11.4545V2.09091C11.4545 1.93419 11.3923 1.78389 11.2815 1.67307C11.1707 1.56226 11.0204 1.5 10.8636 1.5C10.7069 1.5 10.5566 1.56226 10.4458 1.67307C10.335 1.78389 10.2727 1.93419 10.2727 2.09091V2.68182H5.54545V2.09091C5.54545 1.93419 5.4832 1.78389 5.37238 1.67307C5.26156 1.56226 5.11126 1.5 4.95455 1.5C4.79783 1.5 4.64753 1.56226 4.53671 1.67307C4.42589 1.78389 4.36364 1.93419 4.36364 2.09091V2.68182H3.77273C3.30257 2.68182 2.85167 2.86859 2.51922 3.20104C2.18677 3.53349 2 3.98439 2 4.45455V12.7273C2 13.1974 2.18677 13.6483 2.51922 13.9808C2.85167 14.3132 3.30257 14.5 3.77273 14.5H12.0455C12.5156 14.5 12.9665 14.3132 13.299 13.9808C13.6314 13.6483 13.8182 13.1974 13.8182 12.7273V4.45455C13.8182 3.98439 13.6314 3.53349 13.299 3.20104C12.9665 2.86859 12.5156 2.68182 12.0455 2.68182ZM12.6364 12.7273C12.6364 12.884 12.5741 13.0343 12.4633 13.1451C12.3525 13.2559 12.2022 13.3182 12.0455 13.3182H3.77273C3.61601 13.3182 3.46571 13.2559 3.35489 13.1451C3.24407 13.0343 3.18182 12.884 3.18182 12.7273V7.40909H12.6364V12.7273ZM12.6364 6.22727H3.18182V4.45455C3.18182 4.29783 3.24407 4.14753 3.35489 4.03671C3.46571 3.92589 3.61601 3.86364 3.77273 3.86364H4.36364V4.45455C4.36364 4.61126 4.42589 4.76156 4.53671 4.87238C4.64753 4.9832 4.79783 5.04545 4.95455 5.04545C5.11126 5.04545 5.26156 4.9832 5.37238 4.87238C5.4832 4.76156 5.54545 4.61126 5.54545 4.45455V3.86364H10.2727V4.45455C10.2727 4.61126 10.335 4.76156 10.4458 4.87238C10.5566 4.9832 10.7069 5.04545 10.8636 5.04545C11.0204 5.04545 11.1707 4.9832 11.2815 4.87238C11.3923 4.76156 11.4545 4.61126 11.4545 4.45455V3.86364H12.0455C12.2022 3.86364 12.3525 3.92589 12.4633 4.03671C12.5741 4.14753 12.6364 4.29783 12.6364 4.45455V6.22727ZM4.95455 9.77273C5.07142 9.77273 5.18566 9.73807 5.28284 9.67314C5.38001 9.60821 5.45575 9.51592 5.50047 9.40795C5.5452 9.29997 5.5569 9.18116 5.5341 9.06654C5.5113 8.95191 5.45502 8.84662 5.37238 8.76398C5.28974 8.68134 5.18445 8.62506 5.06983 8.60226C4.9552 8.57946 4.83639 8.59116 4.72841 8.63589C4.62044 8.68061 4.52815 8.75635 4.46322 8.85353C4.39829 8.9507 4.36364 9.06495 4.36364 9.18182C4.36364 9.33854 4.42589 9.48884 4.53671 9.59965C4.64753 9.71047 4.79783 9.77273 4.95455 9.77273ZM4.95455 12.1364C5.07142 12.1364 5.18566 12.1017 5.28284 12.0368C5.38001 11.9718 5.45575 11.8796 5.50047 11.7716C5.5452 11.6636 5.5569 11.5448 5.5341 11.4302C5.5113 11.3155 5.45502 11.2103 5.37238 11.1276C5.28974 11.045 5.18445 10.9887 5.06983 10.9659C4.9552 10.9431 4.83639 10.9548 4.72841 10.9995C4.62044 11.0442 4.52815 11.12 4.46322 11.2172C4.39829 11.3143 4.36364 11.4286 4.36364 11.5455C4.36364 11.7022 4.42589 11.8525 4.53671 11.9633C4.64753 12.0741 4.79783 12.1364 4.95455 12.1364Z" fill="#0000A0"/>
</svg>
