<svg width="24" height="24" viewBox="0 0 24 24" fill="none" xmlns="http://www.w3.org/2000/svg">
<path fill-rule="evenodd" clip-rule="evenodd" d="M11.0872 3.50489C11.6257 3.09191 12.3743 3.09192 12.9128 3.50489L17.4128 6.95602C17.783 7.2399 18 7.67982 18 8.14629V15.75H18.3739L20.7424 20.25H3.25781L5.62623 15.75H6V8.14629C6 7.67982 6.21702 7.2399 6.58716 6.95602L11.0872 3.50489ZM16.5 8.99997V15.75H14.625V8.99997H16.5ZM13.125 8.99997V15.75H10.875V8.99997H13.125ZM7.5 15.75H9.375V8.99997H7.5V15.75ZM15.6573 7.49997L12 4.69516L8.34275 7.49997H15.6573ZM6.53183 17.25L5.74236 18.75H18.2578L17.4683 17.25H6.53183Z" fill="#0000A0"/>
</svg>
