<svg width="24" height="24" viewBox="0 0 24 24" fill="none" xmlns="http://www.w3.org/2000/svg">
<path d="M12 3V6L17.25 4.8L12 3Z" fill="#0000A0"/>
<path fill-rule="evenodd" clip-rule="evenodd" d="M15.75 9.8129L12 8.35882L8.25 9.8129V19.5H15.75V9.8129ZM12 6.75L17.25 8.78571V21H6.75V8.78571L12 6.75Z" fill="#0000A0"/>
<path fill-rule="evenodd" clip-rule="evenodd" d="M12 14.25C12.8284 14.25 13.5 13.5784 13.5 12.75C13.5 11.9216 12.8284 11.25 12 11.25C11.1716 11.25 10.5 11.9216 10.5 12.75C10.5 13.5784 11.1716 14.25 12 14.25ZM12 15.75C13.6569 15.75 15 14.4069 15 12.75C15 11.0931 13.6569 9.75 12 9.75C10.3431 9.75 9 11.0931 9 12.75C9 14.4069 10.3431 15.75 12 15.75Z" fill="#0000A0"/>
<path fill-rule="evenodd" clip-rule="evenodd" d="M18.75 14.25H17.25V12.75H18.75C19.9926 12.75 21 13.7574 21 15V21H19.5V15C19.5 14.5858 19.1642 14.25 18.75 14.25Z" fill="#0000A0"/>
<path fill-rule="evenodd" clip-rule="evenodd" d="M5.25 14.25H6.75V12.75H5.25C4.00736 12.75 3 13.7574 3 15V21H4.5V15C4.5 14.5858 4.83579 14.25 5.25 14.25Z" fill="#0000A0"/>
<path fill-rule="evenodd" clip-rule="evenodd" d="M20.25 21H3.75V19.5H20.25V21Z" fill="#0000A0"/>
</svg>
