<svg width="24" height="24" viewBox="0 0 24 24" fill="none" xmlns="http://www.w3.org/2000/svg">
<path fill-rule="evenodd" clip-rule="evenodd" d="M8.25 12.75C8.25 13.5943 8.52901 14.3734 8.99984 15.0002L7.93156 16.0685C7.19299 15.1641 6.75 14.0088 6.75 12.75C6.75 11.1093 7.50267 9.64432 8.68156 8.6816L9.74984 9.74988C8.8391 10.434 8.25 11.5232 8.25 12.75ZM4.5 12.75C4.5 14.6302 5.19186 16.3488 6.33489 17.6651L5.27203 18.728C3.8586 17.1384 3 15.0445 3 12.75C3 10.0739 4.168 7.67061 6.02203 6.02206L7.08489 7.08493C5.50133 8.46003 4.5 10.4881 4.5 12.75ZM17.6651 17.6651L18.728 18.728C20.1414 17.1384 21 15.0445 21 12.75C21 10.0739 19.832 7.67061 17.978 6.02206L16.9151 7.08493C18.4987 8.46003 19.5 10.4881 19.5 12.75C19.5 14.6302 18.8081 16.3488 17.6651 17.6651ZM17.25 12.75C17.25 11.1093 16.4973 9.64432 15.3184 8.6816L14.2502 9.74988C15.1609 10.434 15.75 11.5232 15.75 12.75C15.75 13.5943 15.471 14.3734 15.0002 15.0002L16.0684 16.0685C16.807 15.1641 17.25 14.0088 17.25 12.75ZM12 14.25C12.8284 14.25 13.5 13.5784 13.5 12.75C13.5 11.9216 12.8284 11.25 12 11.25C11.1716 11.25 10.5 11.9216 10.5 12.75C10.5 13.5784 11.1716 14.25 12 14.25Z" fill="#0000A0"/>
</svg>
