<svg width="32" height="32" viewBox="0 0 32 32" fill="none" xmlns="http://www.w3.org/2000/svg">
<path d="M26 23.894C25.7262 14.135 17.8651 6.27379 8.10604 6V8.10699C16.7018 8.3794 23.6206 15.2982 23.893 23.894H26Z" fill="#0000A0"/>
<path d="M20.7319 23.894C20.4625 17.0431 14.9569 11.5376 8.10604 11.2681V13.3761C13.7935 13.6427 18.3573 18.2065 18.6239 23.894H20.7319Z" fill="#0000A0"/>
<path d="M15.4599 23.894C15.2005 19.9517 12.0483 16.7996 8.10604 16.5401V18.6525C10.8845 18.9029 13.0972 21.1155 13.3475 23.894H15.4599Z" fill="#0000A0"/>
<path d="M10.2121 23.894C10.2121 22.7309 9.26917 21.7879 8.10604 21.7879C6.94291 21.7879 6 22.7308 6 23.894C6 25.0571 6.94291 26 8.10604 26C9.26916 26 10.2121 25.0571 10.2121 23.894Z" fill="#0000A0"/>
</svg>
